HIERARCHY
ROOT Pelvis
{
	OFFSET 0.000000 0.000000 0.000000
	CHANNELS 6 Xposition Yposition Zposition Xrotation Yrotation Zrotation
	JOINT LeftUpLeg_virtual
	{
		OFFSET 0.000000 0.000000 0.000000
		CHANNELS 3 Xrotation Yrotation Zrotation
		JOINT LeftUpLeg
		{
			OFFSET 18.735201 -5.666702 -4.541200
			CHANNELS 3 Xrotation Yrotation Zrotation
			JOINT LeftLeg
			{
				OFFSET -0.021200 -31.938179 0.493100
				CHANNELS 3 Xrotation Yrotation Zrotation
				JOINT LeftFoot
				{
					OFFSET 0.021200 -31.938179 -4.336299
					CHANNELS 3 Xrotation Yrotation Zrotation
					JOINT LeftToeBase
					{
						OFFSET 0.943001 -26.722000 15.023500
						CHANNELS 3 Xrotation Yrotation Zrotation
						End Site
						{
							OFFSET 0 0 0
						}
					}
				}
			}
		}
	}
	JOINT RightUpLeg_virtual
	{
		OFFSET 0.000000 0.000000 0.000000
		CHANNELS 3 Xrotation Yrotation Zrotation
		JOINT RightUpLeg
		{
			OFFSET -18.735201 -5.666702 -4.541200
			CHANNELS 3 Xrotation Yrotation Zrotation
			JOINT RightLeg
			{
				OFFSET 0.018946 -31.938133 0.493100
				CHANNELS 3 Xrotation Yrotation Zrotation
				JOINT RightFoot
				{
					OFFSET -0.018946 -31.938126 -4.336299
					CHANNELS 3 Xrotation Yrotation Zrotation
					JOINT RightToeBase
					{
						OFFSET -0.943001 -26.722004 15.023500
						CHANNELS 3 Xrotation Yrotation Zrotation
						End Site
						{
							OFFSET 0 0 0
						}
					}
				}
			}
		}
	}
	JOINT Hips_virtual
	{
		OFFSET 0.000000 0.000000 0.000000
		CHANNELS 3 Xrotation Yrotation Zrotation
		JOINT Hips
		{
			OFFSET -0.000000 -0.000000 -0.000000
			CHANNELS 3 Xrotation Yrotation Zrotation
			JOINT Spine
			{
				OFFSET 0.000000 10.199997 -0.299500
				CHANNELS 3 Xrotation Yrotation Zrotation
				JOINT Spine1
				{
					OFFSET 0.000000 11.900002 -1.516600
					CHANNELS 3 Xrotation Yrotation Zrotation
					JOINT Spine2
					{
						OFFSET 0.000000 13.600006 -2.842500
						CHANNELS 3 Xrotation Yrotation Zrotation
						JOINT Neck_virtual
						{
							OFFSET 0.000000 0.000000 0.000000
							CHANNELS 3 Xrotation Yrotation Zrotation
							JOINT Neck
							{
								OFFSET 0.000000 9.624100 -2.890100
								CHANNELS 3 Xrotation Yrotation Zrotation
								JOINT Head
								{
									OFFSET 0.000000 14.068802 -1.351900
									CHANNELS 3 Xrotation Yrotation Zrotation
									End Site
									{
										OFFSET 0 0 0
									}
								}
							}
						}
						JOINT LeftShoulder_virtual
						{
							OFFSET 0.000000 0.000000 0.000000
							CHANNELS 3 Xrotation Yrotation Zrotation
							JOINT LeftShoulder
							{
								OFFSET 15.263000 10.923401 -0.547700
								CHANNELS 3 Xrotation Yrotation Zrotation
								JOINT LeftArm
								{
									OFFSET 25.438599 -2.830597 -13.032500
									CHANNELS 3 Xrotation Yrotation Zrotation
									JOINT LeftForeArm
									{
										OFFSET 29.960503 0.000000 0.000000
										CHANNELS 3 Xrotation Yrotation Zrotation
										JOINT LeftHand
										{
											OFFSET 27.849251 0.000000 0.000000
											CHANNELS 3 Xrotation Yrotation Zrotation
											End Site
											{
												OFFSET 0 0 0
											}
										}
									}
								}
							}
						}
						JOINT RightShoulder_virtual
						{
							OFFSET 0.000000 0.000000 0.000000
							CHANNELS 3 Xrotation Yrotation Zrotation
							JOINT RightShoulder
							{
								OFFSET -15.263000 10.923401 -0.547700
								CHANNELS 3 Xrotation Yrotation Zrotation
								JOINT RightArm
								{
									OFFSET -25.438599 -2.830597 -13.032500
									CHANNELS 3 Xrotation Yrotation Zrotation
									JOINT RightForeArm
									{
										OFFSET -29.960503 0.000000 0.000000
										CHANNELS 3 Xrotation Yrotation Zrotation
										JOINT RightHand
										{
											OFFSET -27.849251 0.000000 0.000000
											CHANNELS 3 Xrotation Yrotation Zrotation
											End Site
											{
												OFFSET 0 0 0
											}
										}
									}
								}
							}
						}
					}
				}
			}
		}
	}
}
MOTION
Frames: 4
Frame Time: 0.03333333
1.278261 94.412460 2.209075 0.000000 0.000000 0.000000 11.434543 -3.065987 -2.109272 -25.242921 11.710783 13.682804 31.859090 -3.255105 -0.489289 -15.604665 -2.826361 -7.842904 0.000000 0.000000 0.000000 6.274748 7.191359 4.606105 -20.364035 -4.045035 -8.593980 28.678721 1.839989 -3.742276 -18.903264 -0.237615 5.673150 0.000000 0.000000 0.000000 -0.494436 -0.306424 0.216066 1.535567 10.335338 -1.502260 7.355823 -0.529289 1.035913 2.242348 0.085284 0.749704 0.000000 0.000000 0.000000 0.418837 -0.238026 -0.168841 -1.612477 -0.244134 -0.183024 0.000000 0.000000 0.000000 -0.044694 -0.141279 -0.227011 -0.701228 -7.034278 -8.079379 4.688401 -0.982406 -59.027581 4.239101 -30.740513 -6.115481 0.000000 0.000000 0.000000 0.699600 -0.234883 -0.157302 -0.491617 6.608866 5.560113 14.558167 7.495049 53.118074 8.762407 37.143337 2.644169 0.000000 0.000000 0.000000 
1.292693 94.412193 2.260125 0.000000 0.000000 0.000000 11.485317 -3.070099 -2.128241 -25.151313 11.724565 13.649122 31.694523 -3.225854 -0.486563 -15.735998 -2.788411 -7.822754 0.000000 0.000000 0.000000 6.290004 7.183072 4.633854 -20.335684 -4.055402 -8.558050 28.749202 1.872045 -3.780009 -18.865705 -0.179798 5.626721 0.000000 0.000000 0.000000 -0.512397 -0.334942 0.223006 1.455260 10.513971 -1.476661 7.459474 -0.572703 1.024989 2.289324 0.084248 0.766530 0.000000 0.000000 0.000000 0.425708 -0.237438 -0.162080 -1.607521 -0.244695 -0.186517 0.000000 0.000000 0.000000 -0.074801 -0.153541 -0.208761 -0.705001 -7.065810 -8.066932 4.826122 -0.885860 -59.081594 4.296772 -30.568365 -6.154873 0.000000 0.000000 0.000000 0.640581 -0.218043 -0.162930 -0.518130 6.608451 5.573178 14.681000 7.516653 53.256467 8.804775 37.081589 2.692016 0.000000 0.000000 0.000000 
1.320931 94.414589 2.358454 0.000000 0.000000 0.000000 11.580216 -3.067184 -2.161958 -24.982911 11.752080 13.590790 31.401825 -3.170036 -0.482965 -15.970036 -2.715966 -7.787132 0.000000 0.000000 0.000000 6.323056 7.170901 4.679138 -20.277500 -4.073167 -8.497454 28.878825 1.935975 -3.843260 -18.797791 -0.072043 5.555382 0.000000 0.000000 0.000000 -0.546765 -0.396318 0.240954 1.295731 10.850572 -1.417131 7.643572 -0.646462 1.007970 2.375955 0.080980 0.796907 0.000000 0.000000 0.000000 0.441984 -0.234183 -0.147386 -1.596270 -0.245888 -0.192201 0.000000 0.000000 0.000000 -0.130333 -0.176477 -0.174817 -0.715293 -7.127742 -8.039933 5.063032 -0.697875 -59.172934 4.388667 -30.273557 -6.230660 0.000000 0.000000 0.000000 0.535643 -0.187369 -0.171931 -0.567222 6.599218 5.598655 14.904444 7.560931 53.513839 8.887034 36.965721 2.780681 0.000000 0.000000 0.000000 
1.361464 94.422424 2.497649 0.000000 0.000000 0.000000 11.706684 -3.041122 -2.203446 -24.764709 11.792497 13.522728 31.040204 -3.092411 -0.481857 -16.260235 -2.614902 -7.744324 0.000000 0.000000 0.000000 6.375801 7.159972 4.725248 -20.190239 -4.093747 -8.431062 29.050997 2.030345 -3.913588 -18.709316 0.072716 5.490978 0.000000 0.000000 0.000000 -0.593130 -0.494410 0.275979 1.065926 11.307440 -1.315789 7.872065 -0.730033 0.992382 2.489023 0.073394 0.835870 0.000000 0.000000 0.000000 0.470963 -0.225516 -0.123051 -1.577206 -0.248022 -0.197926 0.000000 0.000000 0.000000 -0.203738 -0.207477 -0.129541 -0.736213 -7.218302 -7.997805 5.334699 -0.424888 -59.276063 4.476146 -29.932829 -6.337344 0.000000 0.000000 0.000000 0.406627 -0.148108 -0.180782 -0.631930 6.567629 5.635681 15.192878 7.628743 53.855468 9.003822 36.808361 2.897175 0.000000 0.000000 0.000000 
